<svg width="300" height="200" viewBox="0 0 300 200" fill="none" xmlns="http://www.w3.org/2000/svg">
<path fill-rule="evenodd" clip-rule="evenodd" d="M202.751 171.739C202.051 172.069 201.266 172.238 200.402 172.238C199.524 172.238 198.739 172.069 198.054 171.739C197.349 171.401 196.757 170.944 196.264 170.374C195.771 169.8 195.395 169.136 195.137 168.374C194.869 167.625 194.742 166.83 194.742 166.001C194.742 165.154 194.869 164.358 195.137 163.61C195.395 162.861 195.771 162.202 196.264 161.642C196.757 161.077 197.349 160.634 198.054 160.305C198.739 159.98 199.524 159.815 200.402 159.815C201.266 159.815 202.051 159.98 202.751 160.305C203.455 160.634 204.052 161.077 204.541 161.642C205.034 162.202 205.419 162.861 205.677 163.61C205.95 164.358 206.077 165.154 206.077 166.001C206.077 166.83 205.95 167.625 205.677 168.374C205.419 169.136 205.034 169.8 204.541 170.374C204.052 170.944 203.455 171.401 202.751 171.739ZM196.823 174.653C197.922 175.138 199.129 175.378 200.402 175.378C201.689 175.378 202.882 175.138 203.996 174.653C205.095 174.169 206.062 173.505 206.894 172.657C207.716 171.815 208.369 170.831 208.843 169.701C209.313 168.576 209.548 167.366 209.548 166.081C209.548 164.791 209.313 163.586 208.843 162.456C208.369 161.336 207.716 160.357 206.894 159.514C206.062 158.676 205.095 158.017 203.996 157.532C202.882 157.047 201.689 156.807 200.402 156.807C199.129 156.807 197.922 157.047 196.804 157.532C195.691 158.017 194.723 158.676 193.911 159.514C193.093 160.357 192.45 161.336 191.971 162.456C191.491 163.586 191.257 164.791 191.257 166.081C191.257 167.366 191.491 168.576 191.971 169.701C192.45 170.831 193.093 171.815 193.925 172.657C194.751 173.505 195.71 174.169 196.823 174.653ZM143.138 165.21C143.988 165.21 144.627 164.96 145.106 164.471C145.571 163.972 145.797 163.374 145.797 162.672C145.797 161.914 145.552 161.293 145.069 160.822C144.571 160.347 143.927 160.111 143.138 160.111H139.653V165.21H143.138ZM136.463 157.282H143.11C144.218 157.282 145.167 157.452 145.933 157.786C146.708 158.12 147.333 158.549 147.807 159.066C148.282 159.584 148.624 160.154 148.85 160.766C149.071 161.387 149.179 161.976 149.179 162.54C149.179 163.651 148.934 164.631 148.455 165.483C147.967 166.339 147.229 167.027 146.219 167.53L150.283 174.907H146.544L142.978 167.954H139.653V174.907H136.463V157.282ZM91.6161 157.284H88.5347L87.6938 174.904H90.8035L91.3812 162.881L96.0409 169.886H97.5957L102.227 162.698L102.8 174.904H106.051L105.205 157.284H102.115L96.9146 165.602L91.6161 157.284ZM121.007 160.85L123.328 167.69H118.659L121.007 160.85ZM122.825 157.286H119.401L112.731 174.906H116.202L117.738 170.439H124.277L125.808 174.906H129.495L122.825 157.286ZM166.432 164.471C165.967 164.96 165.309 165.21 164.468 165.21H160.983V160.111H164.468C165.253 160.111 165.896 160.347 166.399 160.822C166.883 161.293 167.127 161.914 167.127 162.672C167.127 163.374 166.901 163.972 166.432 164.471ZM164.44 157.282H157.789V174.907H160.983V167.954H164.308L167.874 174.907H171.608L167.55 167.53C168.55 167.027 169.297 166.339 169.776 165.483C170.255 164.631 170.504 163.651 170.504 162.54C170.504 161.976 170.401 161.387 170.175 160.766C169.955 160.154 169.607 159.584 169.137 159.066C168.663 158.549 168.033 158.12 167.263 157.786C166.488 157.452 165.544 157.282 164.44 157.282ZM179.933 174.902H183.254V157.282H179.933V174.902ZM219.854 160.217H213.893V157.284H229.131V160.217H223.18V174.904H219.854V160.217ZM234.763 160.217H240.724V174.904H244.04V160.217H250.001V157.284H234.763V160.217Z" fill="#1C1C1C"/>
<path fill-rule="evenodd" clip-rule="evenodd" d="M177.563 139.665H207.212L157.599 26.9106L132.709 38.4393L150.06 77.6859L141.962 95.9747L110.927 25.1029L85.7779 36.0808L105.972 81.3672C105.948 81.4284 105.925 81.4849 105.896 81.5461C93.4298 110.111 78.1307 117.949 76.6464 118.514C73.0999 119.889 69.2857 120.661 65.2554 120.661C64.0341 120.661 62.8175 120.59 61.6432 120.477L49.4537 145.342C53.484 147.569 57.9981 148.835 62.8175 148.835C68.924 148.835 74.4997 146.816 79.1312 143.469L79.089 143.558C79.089 143.558 90.5879 137.989 102.9 107.522C102.9 107.499 107.418 97.7588 109.842 91.5731L110.086 90.8717L131.75 139.665H161.381L146.115 105.343L154.208 87.0822L177.563 139.665Z" fill="#1C1C1C"/>
</svg>
